<svg xmlns="http://www.w3.org/2000/svg" viewBox="0 0 1024 1024" width="1024" height="1024">
  <defs>
    <linearGradient id="bg" x1="0" y1="0" x2="0" y2="1">
      <stop offset="0%" stop-color="#1a3f8f"/>
      <stop offset="100%" stop-color="#264d99"/>
    </linearGradient>
  </defs>

  <!-- Background fill -->
  <rect width="1024" height="1024" fill="url(#bg)"/>

  <!-- Red border frame -->
  <rect x="48" y="48" width="928" height="928" rx="80" ry="80" fill="none" stroke="#cc2233" stroke-width="40"/>

  <!-- Inner subtle frame -->
  <rect x="88" y="88" width="848" height="848" rx="56" ry="56" fill="none" stroke="rgba(255,255,255,0.12)" stroke-width="4"/>

  <!-- Stars row - top (5 stars) -->
  <g fill="white">
    <g transform="translate(272,200) scale(0.55)">
      <polygon points="0,-40 10,-13 38,-13 16,5 24,32 0,16 -24,32 -16,5 -38,-13 -10,-13"/>
    </g>
    <g transform="translate(392,200) scale(0.55)">
      <polygon points="0,-40 10,-13 38,-13 16,5 24,32 0,16 -24,32 -16,5 -38,-13 -10,-13"/>
    </g>
    <g transform="translate(512,200) scale(0.55)">
      <polygon points="0,-40 10,-13 38,-13 16,5 24,32 0,16 -24,32 -16,5 -38,-13 -10,-13"/>
    </g>
    <g transform="translate(632,200) scale(0.55)">
      <polygon points="0,-40 10,-13 38,-13 16,5 24,32 0,16 -24,32 -16,5 -38,-13 -10,-13"/>
    </g>
    <g transform="translate(752,200) scale(0.55)">
      <polygon points="0,-40 10,-13 38,-13 16,5 24,32 0,16 -24,32 -16,5 -38,-13 -10,-13"/>
    </g>
  </g>

  <!-- "ATX" main text -->
  <text x="512" y="520" text-anchor="middle" font-family="system-ui, -apple-system, 'SF Pro Rounded', 'Helvetica Neue', Arial, sans-serif" font-size="300" font-weight="900" fill="white" letter-spacing="12">ATX</text>

  <!-- "VOTES" subtitle -->
  <text x="512" y="660" text-anchor="middle" font-family="system-ui, -apple-system, 'SF Pro Rounded', 'Helvetica Neue', Arial, sans-serif" font-size="130" font-weight="800" fill="white" letter-spacing="18">VOTES</text>

  <!-- Stars row - bottom (3 stars) -->
  <g fill="white">
    <g transform="translate(392,790) scale(0.45)">
      <polygon points="0,-40 10,-13 38,-13 16,5 24,32 0,16 -24,32 -16,5 -38,-13 -10,-13"/>
    </g>
    <g transform="translate(512,790) scale(0.45)">
      <polygon points="0,-40 10,-13 38,-13 16,5 24,32 0,16 -24,32 -16,5 -38,-13 -10,-13"/>
    </g>
    <g transform="translate(632,790) scale(0.45)">
      <polygon points="0,-40 10,-13 38,-13 16,5 24,32 0,16 -24,32 -16,5 -38,-13 -10,-13"/>
    </g>
  </g>
</svg>
