<svg xmlns="http://www.w3.org/2000/svg" viewBox="0 0 32 32" width="32" height="32">
  <style>
    .shield-fill { fill: #21598F; }
    .stripe { fill: #BF2626; }
    .star-fill { fill: #FFFFFF; }
    .border-stroke { stroke: #0D2E4A; }
    @media(prefers-color-scheme:dark){
      .shield-fill { fill: #1C1C1F; }
      .star-fill { fill: #6699D9; }
      .stripe { fill: #BF2626; }
      .border-stroke { stroke: #6699D9; }
    }
  </style>
  <defs>
    <clipPath id="s">
      <path d="M4 3h24c1 0 1.5.5 1.5 1.5V20c0 7-9.5 10-13.5 11C12 30 2.5 27 2.5 20V4.5C2.5 3.5 3 3 4 3Z"/>
    </clipPath>
  </defs>
  <g clip-path="url(#s)">
    <rect x="2.5" y="3" width="27" height="28" class="shield-fill"/>
    <rect x="14" y="3" width="16" height="5.6" fill="#FFFFFF"/>
    <rect x="14" y="8.6" width="16" height="5.6" class="stripe"/>
    <rect x="14" y="14.2" width="16" height="5.6" fill="#FFFFFF"/>
    <rect x="14" y="19.8" width="16" height="5.6" class="stripe"/>
    <rect x="14" y="25.4" width="16" height="5.6" fill="#FFFFFF"/>
  </g>
  <path d="M8.2 11 L9.2 13.8 L12.2 13.8 L9.8 15.6 L10.6 18.4 L8.2 16.6 L5.8 18.4 L6.6 15.6 L4.2 13.8 L7.2 13.8Z" class="star-fill"/>
  <path d="M4 3h24c1 0 1.5.5 1.5 1.5V20c0 7-9.5 10-13.5 11C12 30 2.5 27 2.5 20V4.5C2.5 3.5 3 3 4 3Z" fill="none" class="border-stroke" stroke-width="0.5" opacity="0.3"/>
</svg>
